<svg width="34" height="91" viewBox="0 0 34 91" fill="none" xmlns="http://www.w3.org/2000/svg">
<path d="M33.3285 0.375999V2.936C30.4272 3.02133 28.2085 3.36266 26.6725 3.96C25.2218 4.472 24.2405 5.496 23.7285 7.032C23.2165 8.48266 22.9605 10.7867 22.9605 13.944V77.432C22.9605 80.504 23.2165 82.808 23.7285 84.344C24.2405 85.88 25.2218 86.904 26.6725 87.416C28.2085 87.928 30.4272 88.2693 33.3285 88.44V91C31.3658 90.8293 28.8912 90.744 25.9045 90.744C23.0032 90.6587 20.0592 90.616 17.0725 90.616C13.7445 90.616 10.6298 90.6587 7.7285 90.744C4.82717 90.744 2.4805 90.8293 0.6885 91V88.44C3.58983 88.2693 5.76583 87.928 7.2165 87.416C8.7525 86.904 9.7765 85.88 10.2885 84.344C10.8005 82.808 11.0565 80.504 11.0565 77.432V13.944C11.0565 10.7867 10.8005 8.48266 10.2885 7.032C9.7765 5.496 8.7525 4.472 7.2165 3.96C5.76583 3.36266 3.58983 3.02133 0.6885 2.936V0.375999C2.4805 0.461332 4.82717 0.546664 7.7285 0.631996C10.6298 0.717328 13.7445 0.759995 17.0725 0.759995C20.0592 0.759995 23.0032 0.717328 25.9045 0.631996C28.8912 0.546664 31.3658 0.461332 33.3285 0.375999Z" fill="#70A0BF"/>
</svg>
