<svg width="77" height="91" viewBox="0 0 77 91" fill="none" xmlns="http://www.w3.org/2000/svg">
<path d="M33.141 0.375999V2.936C30.2397 3.02133 28.021 3.36266 26.485 3.96C25.0343 4.472 24.053 5.496 23.541 7.032C23.029 8.48266 22.773 10.7867 22.773 13.944V77.432C22.773 80.504 23.029 82.808 23.541 84.344C24.053 85.88 25.0343 86.904 26.485 87.416C28.021 87.928 30.2397 88.2693 33.141 88.44V91C31.1783 90.8293 28.7037 90.744 25.717 90.744C22.8157 90.6587 19.8717 90.616 16.885 90.616C13.557 90.616 10.4423 90.6587 7.541 90.744C4.63967 90.744 2.293 90.8293 0.501 91V88.44C3.40233 88.2693 5.57833 87.928 7.029 87.416C8.565 86.904 9.589 85.88 10.101 84.344C10.613 82.808 10.869 80.504 10.869 77.432V13.944C10.869 10.7867 10.613 8.48266 10.101 7.032C9.589 5.496 8.565 4.472 7.029 3.96C5.57833 3.36266 3.40233 3.02133 0.501 2.936V0.375999C2.293 0.461332 4.63967 0.546664 7.541 0.631996C10.4423 0.717328 13.557 0.759995 16.885 0.759995C19.8717 0.759995 22.8157 0.717328 25.717 0.631996C28.7037 0.546664 31.1783 0.461332 33.141 0.375999ZM76.516 0.375999V2.936C73.6147 3.02133 71.396 3.36266 69.86 3.96C68.4093 4.472 67.428 5.496 66.916 7.032C66.404 8.48266 66.148 10.7867 66.148 13.944V77.432C66.148 80.504 66.404 82.808 66.916 84.344C67.428 85.88 68.4093 86.904 69.86 87.416C71.396 87.928 73.6147 88.2693 76.516 88.44V91C74.5533 90.8293 72.0787 90.744 69.092 90.744C66.1907 90.6587 63.2467 90.616 60.26 90.616C56.932 90.616 53.8173 90.6587 50.916 90.744C48.0147 90.744 45.668 90.8293 43.876 91V88.44C46.7773 88.2693 48.9533 87.928 50.404 87.416C51.94 86.904 52.964 85.88 53.476 84.344C53.988 82.808 54.244 80.504 54.244 77.432V13.944C54.244 10.7867 53.988 8.48266 53.476 7.032C52.964 5.496 51.94 4.472 50.404 3.96C48.9533 3.36266 46.7773 3.02133 43.876 2.936V0.375999C45.668 0.461332 48.0147 0.546664 50.916 0.631996C53.8173 0.717328 56.932 0.759995 60.26 0.759995C63.2467 0.759995 66.1907 0.717328 69.092 0.631996C72.0787 0.546664 74.5533 0.461332 76.516 0.375999Z" fill="#70A0BF"/>
</svg>
