<svg width="25" height="16" viewBox="0 0 25 16" fill="none" xmlns="http://www.w3.org/2000/svg">
<path d="M24.2267 0.959999C23.2934 2.98667 22.2534 4.58667 21.1067 5.76C19.9601 6.93333 18.5867 7.82667 16.9867 8.44C18.5867 9.02667 19.9601 9.92 21.1067 11.12C22.2534 12.2933 23.2934 13.8933 24.2267 15.92H23.5467C22.6401 13.8933 21.5067 12.28 20.1467 11.08C18.7867 9.88 17.1601 9 15.2667 8.44C17.1601 7.88 18.7867 7 20.1467 5.8C21.5067 4.6 22.6401 2.98667 23.5467 0.959999H24.2267ZM9.34672 0.959999C8.20005 3.41333 7.62672 5.90667 7.62672 8.44C7.62672 10.9733 8.20005 13.4667 9.34672 15.92H8.66672C7.76005 13.8933 6.62672 12.28 5.26672 11.08C3.90672 9.88 2.28005 9 0.386719 8.44C2.28005 7.88 3.90672 7 5.26672 5.8C6.62672 4.6 7.76005 2.98667 8.66672 0.959999H9.34672ZM13.1467 8.12V8.76H7.22672V8.12H13.1467ZM20.6267 0.959999C19.6934 2.98667 18.6534 4.58667 17.5067 5.76C16.3601 6.93333 14.9867 7.82667 13.3867 8.44C14.9867 9.02667 16.3601 9.92 17.5067 11.12C18.6534 12.2933 19.6934 13.8933 20.6267 15.92H19.9467C19.0401 13.8933 17.9067 12.28 16.5467 11.08C15.1867 9.88 13.5601 9 11.6667 8.44C13.5601 7.88 15.1867 7 16.5467 5.8C17.9067 4.6 19.0401 2.98667 19.9467 0.959999H20.6267Z" fill="black"/>
</svg>
