<svg width="25" height="16" viewBox="0 0 25 16" fill="none" xmlns="http://www.w3.org/2000/svg">
<path d="M0.786719 0.959999H1.46672C2.40005 2.98667 3.53339 4.6 4.86672 5.8C6.22672 7 7.85339 7.88 9.74672 8.44C7.85339 9 6.22672 9.88 4.86672 11.08C3.53339 12.28 2.40005 13.8933 1.46672 15.92H0.786719C1.72005 13.8933 2.76005 12.2933 3.90672 11.12C5.05339 9.92 6.42672 9.02667 8.02672 8.44C6.42672 7.82667 5.05339 6.93333 3.90672 5.76C2.76005 4.58667 1.72005 2.98667 0.786719 0.959999ZM15.6667 0.959999H16.3467C17.2801 2.98667 18.4134 4.6 19.7467 5.8C21.1067 7 22.7334 7.88 24.6267 8.44C22.7334 9 21.1067 9.88 19.7467 11.08C18.4134 12.28 17.2801 13.8933 16.3467 15.92H15.6667C16.8134 13.4667 17.3867 10.9733 17.3867 8.44C17.3867 5.90667 16.8134 3.41333 15.6667 0.959999ZM11.8667 8.12H17.7867V8.76H11.8667V8.12ZM4.38672 0.959999H5.06672C6.00005 2.98667 7.13339 4.6 8.46672 5.8C9.82672 7 11.4534 7.88 13.3467 8.44C11.4534 9 9.82672 9.88 8.46672 11.08C7.13339 12.28 6.00005 13.8933 5.06672 15.92H4.38672C5.32005 13.8933 6.36005 12.2933 7.50672 11.12C8.65339 9.92 10.0267 9.02667 11.6267 8.44C10.0267 7.82667 8.65339 6.93333 7.50672 5.76C6.36005 4.58667 5.32005 2.98667 4.38672 0.959999Z" fill="black"/>
</svg>
