<svg width="1304" height="13" viewBox="0 0 1304 13" fill="none" xmlns="http://www.w3.org/2000/svg">
<path d="M1284.92 0.567993H1285.46C1286.21 2.18933 1287.12 3.47999 1288.18 4.43999C1289.27 5.39999 1290.57 6.10399 1292.09 6.55199C1290.57 6.99999 1289.27 7.70399 1288.18 8.66399C1287.12 9.62399 1286.21 10.9147 1285.46 12.536H1284.92C1285.67 10.9147 1286.5 9.63466 1287.42 8.69599C1288.33 7.73599 1289.43 7.02133 1290.71 6.55199C1289.43 6.06133 1288.33 5.34666 1287.42 4.40799C1286.5 3.46933 1285.67 2.18933 1284.92 0.567993ZM1296.82 0.567993H1297.37C1298.11 2.18933 1299.02 3.47999 1300.09 4.43999C1301.18 5.39999 1302.48 6.10399 1303.99 6.55199C1302.48 6.99999 1301.18 7.70399 1300.09 8.66399C1299.02 9.62399 1298.11 10.9147 1297.37 12.536H1296.82C1297.74 10.5733 1298.2 8.57866 1298.2 6.55199C1298.2 4.52533 1297.74 2.53066 1296.82 0.567993ZM1293.78 6.29599H1298.52V6.80799H1293.78V6.29599ZM1287.8 0.567993H1288.34C1289.09 2.18933 1290 3.47999 1291.06 4.43999C1292.15 5.39999 1293.45 6.10399 1294.97 6.55199C1293.45 6.99999 1292.15 7.70399 1291.06 8.66399C1290 9.62399 1289.09 10.9147 1288.34 12.536H1287.8C1288.55 10.9147 1289.38 9.63466 1290.3 8.69599C1291.21 7.73599 1292.31 7.02133 1293.59 6.55199C1292.31 6.06133 1291.21 5.34666 1290.3 4.40799C1289.38 3.46933 1288.55 2.18933 1287.8 0.567993Z" fill="#232323"/>
<path d="M2 5.99999H1302V6.99999H2V5.99999Z" fill="#232323"/>
<path d="M19.08 0.567993H18.536C17.7893 2.18933 16.8827 3.47999 15.816 4.43999C14.728 5.39999 13.4267 6.10399 11.912 6.55199C13.4267 6.99999 14.728 7.70399 15.816 8.66399C16.8827 9.62399 17.7893 10.9147 18.536 12.536H19.08C18.3333 10.9147 17.5013 9.63466 16.584 8.69599C15.6667 7.73599 14.568 7.02133 13.288 6.55199C14.568 6.06133 15.6667 5.34666 16.584 4.40799C17.5013 3.46933 18.3333 2.18933 19.08 0.567993ZM7.176 0.567993H6.632C5.88533 2.18933 4.97866 3.47999 3.91199 4.43999C2.824 5.39999 1.52266 6.10399 0.00799561 6.55199C1.52266 6.99999 2.824 7.70399 3.91199 8.66399C4.97866 9.62399 5.88533 10.9147 6.632 12.536H7.176C6.25866 10.5733 5.8 8.57866 5.8 6.55199C5.8 4.52533 6.25866 2.53066 7.176 0.567993ZM10.216 6.29599H5.48V6.80799H10.216V6.29599ZM16.2 0.567993H15.656C14.9093 2.18933 14.0027 3.47999 12.936 4.43999C11.848 5.39999 10.5467 6.10399 9.032 6.55199C10.5467 6.99999 11.848 7.70399 12.936 8.66399C14.0027 9.62399 14.9093 10.9147 15.656 12.536H16.2C15.4533 10.9147 14.6213 9.63466 13.704 8.69599C12.7867 7.73599 11.688 7.02133 10.408 6.55199C11.688 6.06133 12.7867 5.34666 13.704 4.40799C14.6213 3.46933 15.4533 2.18933 16.2 0.567993Z" fill="#232323"/>
</svg>
